<?xml version="1.0" standalone="no"?>
<!DOCTYPE svg PUBLIC "-//W3C//DTD SVG 20010904//EN"
 "http://www.w3.org/TR/2001/REC-SVG-20010904/DTD/svg10.dtd">
<svg version="1.0" xmlns="http://www.w3.org/2000/svg"
 width="512.000000pt" height="512.000000pt" viewBox="0 0 512.000000 512.000000"
 preserveAspectRatio="xMidYMid meet">
<metadata>
Created by potrace 1.14, written by Peter Selinger 2001-2017
</metadata>
<g transform="translate(0.000000,512.000000) scale(0.100000,-0.100000)"
fill="#000000" stroke="none">
<path d="M2506 4647 l-24 -24 0 -611 c0 -336 -3 -615 -5 -619 -3 -5 -232 -8
-509 -7 -371 1 -531 -3 -608 -13 -588 -76 -1092 -491 -1281 -1055 -18 -52 -48
-174 -65 -258 -13 -66 -17 -778 -4 -862 53 -362 331 -657 694 -734 93 -20 263
-20 351 0 302 69 511 242 647 536 70 150 168 235 302 262 46 10 200 13 572 12
433 0 517 -3 560 -16 136 -42 210 -111 284 -265 65 -135 106 -196 188 -281
236 -241 575 -324 902 -220 255 82 473 295 560 550 16 46 32 103 37 128 10 56
11 762 1 850 -5 36 -19 111 -33 167 -142 587 -601 1035 -1189 1162 -149 32
-207 35 -749 36 l-497 0 0 30 c-1 17 -1 295 -2 619 l0 589 -24 24 c-31 30 -77
30 -108 0z"/>
</g>
</svg>
